<svg width="24" height="24" viewBox="0 0 24 24" fill="none" xmlns="http://www.w3.org/2000/svg">
<path d="M8.58625 12.0007C8.58625 10.1158 10.1147 8.58744 12.0007 8.58744C13.8867 8.58744 15.4161 10.1158 15.4161 12.0007C15.4161 13.8856 13.8867 15.414 12.0007 15.414C10.1147 15.414 8.58625 13.8856 8.58625 12.0007ZM6.73999 12.0007C6.73999 14.9045 9.09522 17.2583 12.0007 17.2583C14.9063 17.2583 17.2615 14.9045 17.2615 12.0007C17.2615 9.09693 14.9063 6.74311 12.0007 6.74311C9.09522 6.74311 6.73999 9.09693 6.73999 12.0007ZM16.2403 6.53464C16.2402 6.77765 16.3123 7.01523 16.4473 7.21734C16.5823 7.41945 16.7742 7.57701 16.9988 7.6701C17.2234 7.76318 17.4706 7.78761 17.7091 7.7403C17.9476 7.69299 18.1667 7.57605 18.3387 7.40429C18.5107 7.23252 18.6279 7.01364 18.6755 6.77532C18.723 6.537 18.6987 6.28994 18.6058 6.06539C18.5128 5.84084 18.3553 5.64889 18.1532 5.5138C17.9511 5.37871 17.7134 5.30655 17.4702 5.30646H17.4698C17.1438 5.30661 16.8313 5.43604 16.6008 5.66632C16.3703 5.8966 16.2406 6.20891 16.2403 6.53464ZM7.86171 20.335C6.86285 20.2895 6.31994 20.1233 5.95915 19.9828C5.48083 19.7967 5.13954 19.575 4.78071 19.2169C4.42189 18.8588 4.19977 18.518 4.01438 18.04C3.87373 17.6796 3.70735 17.1368 3.66195 16.1386C3.61228 15.0593 3.60236 14.7351 3.60236 12.0008C3.60236 9.26649 3.6131 8.94318 3.66195 7.86301C3.70744 6.86475 3.87505 6.32306 4.01438 5.96159C4.20059 5.48355 4.42238 5.14247 4.78071 4.78386C5.13905 4.42525 5.48001 4.20327 5.95915 4.01798C6.31978 3.87742 6.86285 3.71114 7.86171 3.66576C8.94163 3.61612 9.26603 3.60621 12.0007 3.60621C14.7355 3.60621 15.0602 3.61694 16.141 3.66576C17.1399 3.71122 17.6819 3.87873 18.0436 4.01798C18.5219 4.20327 18.8632 4.42574 19.222 4.78386C19.5808 5.14198 19.8021 5.48355 19.9883 5.96159C20.129 6.322 20.2954 6.86475 20.3408 7.86301C20.3904 8.94318 20.4004 9.26649 20.4004 12.0008C20.4004 14.7351 20.3904 15.0584 20.3408 16.1386C20.2953 17.1368 20.1281 17.6794 19.9883 18.04C19.8021 18.518 19.5803 18.8591 19.222 19.2169C18.8637 19.5747 18.5219 19.7967 18.0436 19.9828C17.6829 20.1233 17.1399 20.2896 16.141 20.335C15.0611 20.3846 14.7367 20.3945 12.0007 20.3945C9.2648 20.3945 8.9413 20.3846 7.86171 20.335ZM7.77688 1.82373C6.68623 1.87336 5.94095 2.0462 5.2901 2.29931C4.61606 2.56069 4.04544 2.91135 3.47524 3.48031C2.90504 4.04927 2.55506 4.62044 2.29353 5.29409C2.04027 5.94496 1.86733 6.68937 1.81766 7.77938C1.76717 8.8711 1.75562 9.22012 1.75562 12.0007C1.75562 14.7813 1.76717 15.1303 1.81766 16.222C1.86733 17.3121 2.04027 18.0564 2.29353 18.7073C2.55506 19.3806 2.90512 19.9524 3.47524 20.5211C4.04536 21.0898 4.61606 21.44 5.2901 21.7021C5.94218 21.9552 6.68623 22.128 7.77688 22.1777C8.86983 22.2273 9.21849 22.2397 12.0007 22.2397C14.783 22.2397 15.1322 22.2281 16.2246 22.1777C17.3153 22.128 18.0601 21.9552 18.7114 21.7021C19.385 21.44 19.956 21.0901 20.5262 20.5211C21.0964 19.9521 21.4457 19.3806 21.708 18.7073C21.9612 18.0564 22.135 17.312 22.1838 16.222C22.2335 15.1295 22.2451 14.7813 22.2451 12.0007C22.2451 9.22012 22.2335 8.8711 22.1838 7.77938C22.1342 6.68929 21.9612 5.94455 21.708 5.29409C21.4457 4.62085 21.0955 4.05017 20.5262 3.48031C19.9569 2.91045 19.385 2.56069 18.7122 2.29931C18.0601 2.0462 17.3153 1.87255 16.2254 1.82373C15.133 1.77409 14.7838 1.76172 12.0016 1.76172C9.21931 1.76172 8.86983 1.77327 7.77688 1.82373Z" fill="url(#paint0_radial_1305_3078)"/>
<path d="M8.58625 12.0007C8.58625 10.1158 10.1147 8.58744 12.0007 8.58744C13.8867 8.58744 15.4161 10.1158 15.4161 12.0007C15.4161 13.8856 13.8867 15.414 12.0007 15.414C10.1147 15.414 8.58625 13.8856 8.58625 12.0007ZM6.73999 12.0007C6.73999 14.9045 9.09522 17.2583 12.0007 17.2583C14.9063 17.2583 17.2615 14.9045 17.2615 12.0007C17.2615 9.09693 14.9063 6.74311 12.0007 6.74311C9.09522 6.74311 6.73999 9.09693 6.73999 12.0007ZM16.2403 6.53464C16.2402 6.77765 16.3123 7.01523 16.4473 7.21734C16.5823 7.41945 16.7742 7.57701 16.9988 7.6701C17.2234 7.76318 17.4706 7.78761 17.7091 7.7403C17.9476 7.69299 18.1667 7.57605 18.3387 7.40429C18.5107 7.23252 18.6279 7.01364 18.6755 6.77532C18.723 6.537 18.6987 6.28994 18.6058 6.06539C18.5128 5.84084 18.3553 5.64889 18.1532 5.5138C17.9511 5.37871 17.7134 5.30655 17.4702 5.30646H17.4698C17.1438 5.30661 16.8313 5.43604 16.6008 5.66632C16.3703 5.8966 16.2406 6.20891 16.2403 6.53464ZM7.86171 20.335C6.86285 20.2895 6.31994 20.1233 5.95915 19.9828C5.48083 19.7967 5.13954 19.575 4.78071 19.2169C4.42189 18.8588 4.19977 18.518 4.01438 18.04C3.87373 17.6796 3.70735 17.1368 3.66195 16.1386C3.61228 15.0593 3.60236 14.7351 3.60236 12.0008C3.60236 9.26649 3.6131 8.94318 3.66195 7.86301C3.70744 6.86475 3.87505 6.32306 4.01438 5.96159C4.20059 5.48355 4.42238 5.14247 4.78071 4.78386C5.13905 4.42525 5.48001 4.20327 5.95915 4.01798C6.31978 3.87742 6.86285 3.71114 7.86171 3.66576C8.94163 3.61612 9.26603 3.60621 12.0007 3.60621C14.7355 3.60621 15.0602 3.61694 16.141 3.66576C17.1399 3.71122 17.6819 3.87873 18.0436 4.01798C18.5219 4.20327 18.8632 4.42574 19.222 4.78386C19.5808 5.14198 19.8021 5.48355 19.9883 5.96159C20.129 6.322 20.2954 6.86475 20.3408 7.86301C20.3904 8.94318 20.4004 9.26649 20.4004 12.0008C20.4004 14.7351 20.3904 15.0584 20.3408 16.1386C20.2953 17.1368 20.1281 17.6794 19.9883 18.04C19.8021 18.518 19.5803 18.8591 19.222 19.2169C18.8637 19.5747 18.5219 19.7967 18.0436 19.9828C17.6829 20.1233 17.1399 20.2896 16.141 20.335C15.0611 20.3846 14.7367 20.3945 12.0007 20.3945C9.2648 20.3945 8.9413 20.3846 7.86171 20.335ZM7.77688 1.82373C6.68623 1.87336 5.94095 2.0462 5.2901 2.29931C4.61606 2.56069 4.04544 2.91135 3.47524 3.48031C2.90504 4.04927 2.55506 4.62044 2.29353 5.29409C2.04027 5.94496 1.86733 6.68937 1.81766 7.77938C1.76717 8.8711 1.75562 9.22012 1.75562 12.0007C1.75562 14.7813 1.76717 15.1303 1.81766 16.222C1.86733 17.3121 2.04027 18.0564 2.29353 18.7073C2.55506 19.3806 2.90512 19.9524 3.47524 20.5211C4.04536 21.0898 4.61606 21.44 5.2901 21.7021C5.94218 21.9552 6.68623 22.128 7.77688 22.1777C8.86983 22.2273 9.21849 22.2397 12.0007 22.2397C14.783 22.2397 15.1322 22.2281 16.2246 22.1777C17.3153 22.128 18.0601 21.9552 18.7114 21.7021C19.385 21.44 19.956 21.0901 20.5262 20.5211C21.0964 19.9521 21.4457 19.3806 21.708 18.7073C21.9612 18.0564 22.135 17.312 22.1838 16.222C22.2335 15.1295 22.2451 14.7813 22.2451 12.0007C22.2451 9.22012 22.2335 8.8711 22.1838 7.77938C22.1342 6.68929 21.9612 5.94455 21.708 5.29409C21.4457 4.62085 21.0955 4.05017 20.5262 3.48031C19.9569 2.91045 19.385 2.56069 18.7122 2.29931C18.0601 2.0462 17.3153 1.87255 16.2254 1.82373C15.133 1.77409 14.7838 1.76172 12.0016 1.76172C9.21931 1.76172 8.86983 1.77327 7.77688 1.82373Z" fill="url(#paint1_radial_1305_3078)"/>
<defs>
<radialGradient id="paint0_radial_1305_3078" cx="0" cy="0" r="1" gradientUnits="userSpaceOnUse" gradientTransform="translate(4.47787 22.3364) scale(26.7483 26.7323)">
<stop offset="0.09" stop-color="#FA8F21"/>
<stop offset="0.78" stop-color="#D82D7E"/>
</radialGradient>
<radialGradient id="paint1_radial_1305_3078" cx="0" cy="0" r="1" gradientUnits="userSpaceOnUse" gradientTransform="translate(14.1821 23.2538) scale(21.0814 21.0687)">
<stop offset="0.64" stop-color="#8C3AAA" stop-opacity="0"/>
<stop offset="1" stop-color="#8C3AAA"/>
</radialGradient>
</defs>
</svg>
