<svg width="24" height="24" viewBox="0 0 24 24" fill="none" xmlns="http://www.w3.org/2000/svg">
<path d="M1.81616 3.28516C1.81616 2.47499 2.49442 1.81738 3.33052 1.81738H20.7921C21.6285 1.81738 22.3064 2.47499 22.3064 3.28516V20.8401C22.3064 21.6505 21.6285 22.3076 20.7921 22.3076H3.33052C2.4945 22.3076 1.81616 21.6506 1.81616 20.8403V3.28492V3.28516Z" fill="#006699"/>
<path d="M8.0428 18.9646V9.73984H4.97663V18.9646H8.04312H8.0428ZM6.51036 8.48056C7.57937 8.48056 8.2449 7.77221 8.2449 6.88697C8.2249 5.98155 7.57937 5.29297 6.53069 5.29297C5.48128 5.29297 4.7959 5.98155 4.7959 6.88689C4.7959 7.77213 5.46119 8.48048 6.49027 8.48048H6.51012L6.51036 8.48056ZM9.73997 18.9646H12.8059V13.8136C12.8059 13.5383 12.8259 13.2622 12.9069 13.0656C13.1285 12.5145 13.633 11.9441 14.4802 11.9441C15.5894 11.9441 16.0334 12.7899 16.0334 14.0301V18.9646H19.0992V13.6754C19.0992 10.8421 17.5868 9.52357 15.5695 9.52357C13.9157 9.52357 13.1893 10.4479 12.7857 11.0775H12.8061V9.74016H9.74013C9.78015 10.6055 9.73989 18.9649 9.73989 18.9649L9.73997 18.9646Z" fill="white"/>
</svg>
