<svg width="24" height="24" viewBox="0 0 24 24" fill="none" xmlns="http://www.w3.org/2000/svg">
<path d="M22.3622 6.84205C22.1173 5.92159 21.393 5.19545 20.4715 4.94659C18.8053 4.5 12.1201 4.5 12.1201 4.5C12.1201 4.5 5.4383 4.5 3.7687 4.94659C2.85059 5.19205 2.1263 5.91818 1.87807 6.84205C1.43262 8.5125 1.43262 12 1.43262 12C1.43262 12 1.43262 15.4875 1.87807 17.158C2.1229 18.0784 2.84719 18.8045 3.7687 19.0534C5.4383 19.5 12.1201 19.5 12.1201 19.5C12.1201 19.5 18.8053 19.5 20.4715 19.0534C21.3896 18.808 22.1139 18.0818 22.3622 17.158C22.8076 15.4875 22.8076 12 22.8076 12C22.8076 12 22.8076 8.5125 22.3622 6.84205Z" fill="#FF3000"/>
<path d="M9.98466 15.2148L15.5375 12L9.98466 8.78523V15.2148Z" fill="white"/>
</svg>
